<?xml version="1.0" encoding="UTF-8" standalone="no"?>
<!-- Created using Karbon, part of Calligra: http://www.calligra.org/karbon -->

<svg
   xmlns:dc="http://purl.org/dc/elements/1.1/"
   xmlns:cc="http://creativecommons.org/ns#"
   xmlns:rdf="http://www.w3.org/1999/02/22-rdf-syntax-ns#"
   xmlns:svg="http://www.w3.org/2000/svg"
   xmlns="http://www.w3.org/2000/svg"
   xmlns:sodipodi="http://sodipodi.sourceforge.net/DTD/sodipodi-0.dtd"
   xmlns:inkscape="http://www.inkscape.org/namespaces/inkscape"
   width="400"
   height="600"
   version="1.1"
   id="svg6"
   sodipodi:docname="Human_body_silhouette_smaller.svg"
   inkscape:version="0.92.2 5c3e80d, 2017-08-06">
  <metadata
     id="metadata10">
    <rdf:RDF>
      <cc:Work
         rdf:about="">
        <dc:format>image/svg+xml</dc:format>
        <dc:type
           rdf:resource="http://purl.org/dc/dcmitype/StillImage" />
        <dc:title></dc:title>
      </cc:Work>
    </rdf:RDF>
  </metadata>
  <sodipodi:namedview
     pagecolor="#ffffff"
     bordercolor="#666666"
     borderopacity="1"
     objecttolerance="10"
     gridtolerance="10"
     guidetolerance="10"
     inkscape:pageopacity="0"
     inkscape:pageshadow="2"
     inkscape:window-width="1366"
     inkscape:window-height="739"
     id="namedview8"
     showgrid="false"
     units="px"
     inkscape:zoom="0.40227273"
     inkscape:cx="476.33665"
     inkscape:cy="546.19119"
     inkscape:window-x="0"
     inkscape:window-y="0"
     inkscape:window-maximized="1"
     inkscape:current-layer="svg6" />
  <defs
     id="defs2" />
  <g
     id="layer1"
     transform="matrix(0.24829035,0,0,0.24829035,80.806293,26.567386)">
    <path
       id="path2180"
       transform="translate(4,6)"
       d="m 672,2191.32 c -4.17,-1.87 -10.351,-7.6 -13.429,-12.46 -1.219,-1.93 -3.024,-6.43 -4.011,-10 -0.987,-3.58 -3.021,-8.98 -4.521,-12 -3.51,-7.08 -6.661,-26.55 -8.012,-49.5 -0.906,-15.4 -1.337,-18 -4.557,-27.5 -1.957,-5.78 -4.184,-13.2 -4.951,-16.5 -0.767,-3.3 -1.832,-7.8 -2.367,-10 -0.535,-2.2 -1.29,-8.28 -1.678,-13.5 -0.535,-7.22 -1.556,-11.78 -4.255,-19 -1.953,-5.23 -3.868,-12.43 -4.256,-16 -0.44,-4.06 -2.039,-9.46 -4.25,-14.37 -5.018,-11.14 -5.474,-17 -2.15,-27.63 4.758,-15.23 4.418,-37.49 -1.108,-72.5 -2.79,-17.68 -10.639,-61.25 -13.601,-75.5 -4.164,-20.04 -5.411,-24.59 -15.788,-57.66 -8.829,-28.13 -9.39,-34.03 -12.928,-135.84 l -0.868,-25 -5.244,-13.5 c -2.885,-7.42 -6.834,-16.64 -8.776,-20.5 -5.534,-10.98 -12.891,-33.07 -15.171,-45.55 -1.456,-7.97 -2.084,-15.59 -2.097,-25.42 -0.01,-7.72 -0.448,-18.08 -0.975,-23.03 -0.526,-4.95 -1.444,-16.88 -2.04,-26.5 -0.595,-9.63 -1.944,-23.58 -2.997,-31 -2.439,-17.21 -13.428,-70.41 -20.963,-101.5 -3.575,-14.75 -6.699,-30.68 -8.105,-41.33 -1.259,-9.52 -2.764,-17.95 -3.345,-18.72 -0.869,-1.15 -2.266,-0.61 -7.855,3 -5.478,3.54 -8.002,4.52 -13,5.05 -3.673,0.39 -7.338,0.22 -8.988,-0.41 -2.109,-0.81 -2.874,-0.77 -3.15,0.17 -0.201,0.68 -1.558,10.24 -3.017,21.24 -1.458,11 -4.19,26.97 -6.069,35.5 -4.714,21.38 -10.253,56.35 -11.445,72.25 -0.546,7.28 -1.655,17.75 -2.463,23.25 -1.526,10.37 -3.609,57.6 -3.617,82 -0.007,21.57 -1.305,31.07 -6.353,46.5 -2.43,7.42 -6.308,18 -8.619,23.5 -2.311,5.5 -5.502,14.61 -7.091,20.26 -4.088,14.51 -4.05,17.4 1.133,86.81 0.578,7.73 1.049,20.78 1.047,29 -0.004,20.89 -1.697,30.75 -14.071,81.93 -2.128,8.8 -4.615,20.05 -5.527,25 -0.912,4.95 -2.559,13.27 -3.659,18.5 -1.1,5.22 -2.377,12.2 -2.839,15.5 -0.461,3.3 -1.749,10.95 -2.861,17 -2.739,14.89 -5.113,41.75 -5.113,57.83 0,10.81 0.456,15.01 2.508,23.1 3.725,14.68 4.067,21.61 1.483,30.07 -7.676,25.12 -9.029,32.64 -9.98,55.5 -0.712,17.08 -1.147,20.55 -3.524,28 -1.491,4.67 -3.735,10.52 -4.986,13 -3.233,6.39 -4.698,17.29 -4.544,33.8 0.073,7.87 -0.308,15.74 -0.847,17.5 -0.539,1.76 -2.161,7.88 -3.605,13.6 -1.443,5.73 -3.543,12.21 -4.665,14.41 -1.123,2.2 -2.701,6.29 -3.508,9.09 -0.807,2.81 -3.066,7.46 -5.019,10.34 -3.022,4.47 -4.308,5.47 -8.614,6.75 -10.539,3.13 -19.176,1.29 -23.277,-4.97 -2.309,-3.53 -1.529,-14.44 1.448,-20.27 1.711,-3.35 1.867,-4.25 0.736,-4.25 -1.708,0 -7.95,10.83 -9.507,16.5 -0.604,2.2 -1.436,4.5 -1.849,5.11 -1.276,1.89 -7.003,4.39 -10.052,4.39 -4.136,0 -9.514,-3.93 -10.655,-7.77 -0.756,-2.56 -1.495,-3.23 -3.527,-3.23 -3.508,0 -6.956,-2.61 -8.579,-6.5 -0.95,-2.27 -2.202,-3.41 -4.206,-3.81 -3.372,-0.67 -5.231,-4.09 -5.231,-9.62 0,-2.35 -0.641,-4.36 -1.662,-5.2 -2.978,-2.46 -6.338,-11.58 -6.338,-17.2 0,-6.35 5.51,-31.16 7.7,-34.67 0.857,-1.38 2.598,-3.63 3.868,-5 1.27,-1.38 4.12,-6.1 6.332,-10.5 2.213,-4.4 7.179,-11.83 11.036,-16.5 7.487,-9.08 9.441,-11.8 15.8,-22 2.768,-4.44 4.381,-8.46 5.094,-12.68 0.699,-4.13 3.182,-10.4 7.533,-19 7.051,-13.93 7.695,-16.96 6.234,-29.32 -0.781,-6.61 -0.407,-8.63 5.921,-31.97 2.24,-8.26 1.846,-15.87 -2.461,-47.53 -2.169,-15.95 -4.894,-38.68 -6.056,-50.5 -1.161,-11.83 -2.972,-29.15 -4.024,-38.5 -1.052,-9.35 -2.4,-21.73 -2.994,-27.5 -0.594,-5.78 -2.699,-21.98 -4.677,-36 -3.25,-23.05 -3.606,-27.76 -3.701,-49 -0.102,-22.77 0.137,-26.16 4.48,-63.5 1.349,-11.61 3.246,-23.14 7.071,-43 3.007,-15.62 3.061,-16.4 2.213,-32.5 -0.478,-9.08 -0.869,-29.78 -0.869,-46 0,-32.28 0.537,-28.28 -6.643,-49.5 -3.533,-10.45 -7.703,-33.65 -11.907,-66.26 -1.115,-8.66 -3.136,-22.33 -4.489,-30.38 -1.354,-8.05 -2.461,-16.16 -2.461,-18.03 0,-1.87 -1.101,-9.23 -2.447,-16.36 -1.345,-7.14 -3.372,-19.72 -4.504,-27.97 -1.132,-8.25 -2.737,-19.5 -3.565,-25 -6.116,-40.59 -14.603,-124.9 -13.051,-129.67 0.239,-0.73 0.681,-16.18 0.983,-34.33 0.956,-57.47 4.161,-87 11.673,-107.584 6.162,-16.885 8.121,-33.046 8.414,-69.419 0.196,-24.299 0.332,-25.281 8.639,-62.5 5.952,-26.669 7.249,-40.326 7.315,-77 0.045,-25.583 -1.19,-42.945 -4.551,-64 -3.205,-20.072 -3.761,-20.356 -6.326,-3.223 -1.529,10.214 -10.424,47.019 -17.212,71.223 -2.398,8.549 -2.684,11.351 -2.857,28 -0.106,10.175 -0.696,20.525 -1.312,23 -1.592,6.397 -10.989,33.734 -13.234,38.5 -3.262,6.924 -9.645,22.666 -12.772,31.5 -13.89,39.234 -26.928,72.154 -37.427,94.503 -13.847,29.47 -20.412,45.92 -33.715,84.5 -8.51,24.67 -14.678,42.13 -16.075,45.5 -0.456,1.1 -1.064,4.02 -1.351,6.5 -0.286,2.47 -1.042,7.87 -1.679,12 -0.687,4.45 -0.874,10.55 -0.46,15 1.652,17.73 1.92,14.97 -5.003,51.5 -4.191,22.11 -4.294,19.87 2.559,56 1.043,5.5 2.023,15.1 2.177,21.33 0.281,11.32 0.279,11.33 -2.525,13.75 -1.56,1.34 -4.08,2.42 -5.677,2.42 -4.914,0 -6.501,-3.36 -8.928,-18.88 -1.2,-7.67 -3.055,-17.01 -4.122,-20.74 -1.067,-3.73 -2.665,-10.73 -3.55,-15.54 -1.946,-10.59 -3.607,-12.6 -6.955,-8.4 -1.266,1.59 -2.545,4.28 -2.843,5.97 -0.298,1.7 -0.822,15.69 -1.164,31.09 -0.87,39.07 -1.534,46.03 -4.699,49.2 -2.969,2.96 -8.486,3.36 -12.279,0.87 -2.8616,-1.87 -2.9834,-3.5 -1.423,-19.07 0.799,-7.98 0.66,-13 -0.688,-24.83 -1.3955,-12.25 -1.486,-16.16 -0.5207,-22.5 1.3777,-9.05 1.4957,-15.17 0.2917,-15.17 -0.4748,0 -1.1271,2.81 -1.4497,6.25 -0.3226,3.43 -1.0739,10.52 -1.6694,15.75 -0.5956,5.22 -1.2613,21.34 -1.4794,35.81 -0.3241,21.51 -0.6776,26.75 -1.9337,28.67 -2.8482,4.34 -11.488,4.47 -15.3506,0.21 -1.7804,-1.95 -2.0902,-4.31 -2.8564,-21.69 -1.0762,-24.42 -1.1206,-40.81 -0.1309,-48.32 0.5108,-3.88 0.4273,-5.61 -0.25,-5.19 -0.5593,0.34 -1.0169,1.92 -1.0169,3.51 0,1.58 -0.45,3.16 -1,3.5 -0.6176,0.38 -1,9.02 -1,22.59 0,23.35 -0.6918,27.6 -4.8496,29.83 -3.6411,1.94 -7.9201,1.25 -11.3846,-1.84 l -3.2658,-2.92 -0.6163,-22.33 c -0.339,-12.28 -0.2171,-25.71 0.2709,-29.83 0.4879,-4.13 1.8436,-15.6 3.0126,-25.5 2.2634,-19.17 3.4455,-38.5 2.3543,-38.5 -0.6842,0 -10.7417,8.63 -17.856,15.33 -7.1518,6.73 -15.7536,9.69 -27.9643,9.63 C 3.4855,1226.79 0,1224.88 0,1220.43 c 0,-2.06 0.7848,-2.94 3.75,-4.2 10.0812,-4.3 12.25,-5.43 12.25,-6.37 0,-0.56 4.8055,-5.85 10.679,-11.75 5.8735,-5.91 12.6563,-13.44 15.073,-16.74 7.7606,-10.62 8.525,-11.51 9.825,-11.51 0.7028,0 2.2267,-1.21 3.3865,-2.68 1.1597,-1.48 4.0655,-4.07 6.4573,-5.75 10.8181,-7.64 26.5225,-21.8 29.18,-26.32 4.6049,-7.82 6.3981,-12 6.4179,-14.96 0.0171,-2.54 1.469,-8.5 7.0123,-28.79 1.052,-3.85 2.826,-10.35 3.943,-14.45 1.117,-4.09 2.714,-11.37 3.548,-16.18 0.834,-4.81 3.049,-12.98 4.923,-18.15 5.44,-15.03 8.283,-28.86 16.078,-78.223 5.385,-34.098 8.275,-50.727 10.951,-63 1.32,-6.05 3.815,-19.1 5.545,-29 2.953,-16.895 8.593,-38.993 13.145,-51.5 1.1,-3.025 3.717,-10.45 5.815,-16.5 2.098,-6.05 5.161,-13.925 6.807,-17.5 8.604,-18.683 12.033,-32.808 15.172,-62.5 1.163,-11 3.221,-29 4.573,-40 6.836,-55.631 6.972,-57.559 6.702,-95.5 -0.392,-55.007 1.315,-75.018 9.384,-110 4.646,-20.146 9.61,-35.38 13.357,-40.996 7.163,-10.735 16.922,-18.216 31.109,-23.843 7.71,-3.058 11.109,-4.789 20.917,-10.653 3.025,-1.809 9.922,-4.933 15.327,-6.943 23.225,-8.639 78.087,-35.001 92.173,-44.292 9.653,-6.366 15.85,-12.474 18.086,-17.825 2.169,-5.192 4.419,-21.184 4.929,-35.043 0.447,-12.151 0.36,-12.862 -2.379,-19.261 -6.048,-14.131 -9.339,-25.761 -12.586,-44.476 -1.665,-9.595 -2.055,-10.668 -3.877,-10.668 -0.665,0 -2.942,-1.178 -5.061,-2.618 -5.121,-3.48 -10.522,-15.108 -14.004,-30.151 -2.988,-12.912 -3.205,-17.843 -1.132,-25.801 1.561,-5.993 2.598,-7.759 6.341,-10.799 2,-1.625 2.223,-2.445 1.634,-6.006 -0.376,-2.269 -1.079,-4.88 -1.563,-5.803 -0.485,-0.922 -1.37,-7.447 -1.968,-14.5 -0.597,-7.052 -1.565,-13.815 -2.149,-15.029 -0.753,-1.564 -0.738,-5.058 0.053,-12 0.713,-6.2622 0.766,-9.9135 0.146,-10.1266 -1.244,-0.4275 -1.264,-3.8669 -0.028,-4.631 0.518,-0.3203 1.216,-2.7093 1.551,-5.309 0.335,-2.5997 1.036,-5.5081 1.558,-6.4631 0.522,-0.9551 0.949,-2.9303 0.949,-4.3894 0,-1.4592 1.427,-4.9528 3.171,-7.7636 1.743,-2.8108 4.619,-7.6544 6.39,-10.7634 2.951,-5.1798 11.622,-16.3975 20.35,-26.326 4.257,-4.8431 12.77,-11.3806 15.839,-12.1638 1.237,-0.3158 2.25,-0.9952 2.25,-1.5097 0,-0.5144 0.562,-0.8308 1.25,-0.7029 0.687,0.1279 2.664,-0.1024 4.392,-0.5118 2.42,-0.5733 3.029,-1.1738 2.653,-2.61292 -0.411,-1.57038 0.282,-1.98409 4.342,-2.59285 2.656,-0.39839 6.32,-1.34681 8.14,-2.10761 1.821,-0.76079 3.761,-1.10521 4.311,-0.76536 0.55,0.33984 1.629,0.09581 2.398,-0.5423 0.768,-0.63811 3.561,-1.22787 6.206,-1.31058 2.644,-0.08271 5.129,-0.610995 5.52,-1.173975 0.47,-0.67421 2.393,-0.42692 5.635,0.724485 5.786,2.05507 8.828,2.22318 9.396,0.51925 0.304,-0.913315 1.047,-0.811165 2.892,0.39786 2.346,1.53708 6.175,1.55979 9.865,0.05849 0.825,-0.33565 2.85,-0.72059 4.5,-0.85542 1.65,-0.13483 4.526,-0.559155 6.392,-0.942955 2.33,-0.47928 3.183,-0.35886 2.723,0.38449 -0.452,0.730955 1.253,1.073125 5.252,1.053995 6.347,-0.03036 10.19,1.48146 13.855,5.45048 1.223,1.32361 4.256,2.97592 6.742,3.67172 2.485,0.6958 5.535,2.2734 6.777,3.5057 1.242,1.2323 4.509,3.3923 7.259,4.8002 8.302,4.25 15.975,12.3902 30.828,32.7043 1.809,2.475 3.866,6.075 4.57,8 0.704,1.925 1.937,4.7332 2.742,6.2404 2.008,3.7638 3.59,12.6191 4.066,22.7596 0.479,10.2011 0.51,8.8921 -0.645,27.5003 -1.176,18.93 -2.566,29.338 -4.737,35.45 l -1.707,4.806 2.665,3.168 c 2.871,3.411 6.718,14.431 6.718,19.241 0,5.091 -4.876,24.966 -8.26,33.666 -2.033,5.228 -4.513,9.604 -6.657,11.75 -3.426,3.428 -4.06,3.683 -9.545,3.836 l -2.961,0.083 -2.848,14 c -4.191,20.603 -4.437,21.725 -5.485,25 -0.945,2.952 -0.837,16.496 0.253,31.783 0.838,11.74 4.067,26.297 6.911,31.15 3.571,6.093 11.902,13.348 21.153,18.419 38.739,21.239 75.479,39.288 97.939,48.114 17.826,7.004 20.926,8.559 33.5,16.802 14.465,9.482 25.846,18.892 30.47,25.191 8.838,12.039 15.269,33.276 20.604,68.041 2.064,13.452 2.242,18.401 2.467,68.5 0.232,51.664 1.209,74.734 4.392,103.747 5.673,51.691 8.72,73.31 12.228,86.753 2.468,9.458 2.896,10.624 9.919,27 6.192,14.436 18.514,51.001 21.904,65 1.132,4.675 3.42,17.725 5.084,29 1.664,11.275 4.787,31.3 6.94,44.5 3.924,24.058 7.086,45.046 9.04,60 2.036,15.583 4.144,27.853 6.076,35.383 2.224,8.66 12.352,40.65 17.606,55.62 1.93,5.5 4.988,15.17 6.795,21.5 5.873,20.56 8.157,25.58 14.894,32.79 3.345,3.57 12.764,12.34 20.933,19.48 9.158,8 15.866,14.71 17.5,17.49 3.173,5.4 9.771,13.86 16.218,20.81 2.59,2.79 5.662,6.94 6.826,9.22 3.066,6.01 7.329,10.49 13.596,14.29 4.871,2.95 5.508,3.72 5.508,6.6 0,4.97 -3.355,6.72 -11.619,6.06 -10.164,-0.82 -18.832,-5.62 -30.131,-16.7 l -9.25,-9.06 v 6.14 c 0,6.47 0.426,9.54 4.567,32.88 4.211,23.73 4.392,25.64 4.413,46.78 0.023,23.45 -0.631,26.34 -6.521,28.8 -3.302,1.38 -3.93,1.35 -7.286,-0.29 -4.916,-2.4 -5.8,-5.48 -7.15,-24.93 -1.674,-24.11 -2.315,-28.34 -5.64,-37.23 -1.311,-3.51 -2.383,-7.89 -2.383,-9.75 0,-1.86 -0.45,-3.38 -1,-3.38 -1.488,0 -1.211,6.4 0.577,13.29 2.002,7.73 2.328,27.06 0.673,39.92 -0.688,5.34 -1.25,15.51 -1.25,22.6 0,12.21 -0.127,13.03 -2.391,15.47 -3.126,3.38 -9.019,4.53 -12.511,2.45 -4.809,-2.87 -5.093,-4.56 -4.754,-28.23 0.308,-21.51 -0.168,-31.83 -2.303,-49.96 -1.736,-14.74 -3.184,-12.93 -2.422,3.03 0.447,9.36 0.299,15.17 -0.446,17.47 -1.696,5.25 -3.14,19.9 -3.485,35.34 -0.297,13.32 -0.41,13.97 -2.737,15.86 -3.222,2.61 -10.595,1.8 -13.287,-1.46 -1.739,-2.1 -1.806,-4.48 -1.269,-44.67 0.553,-41.28 0.352,-45.11 -2.366,-45.11 -0.4,0 -0.8,3.89 -0.888,8.64 -0.089,4.76 -0.9,11.39 -1.803,14.75 -0.902,3.36 -1.729,8.36 -1.836,11.11 -0.328,8.37 -1.643,20.79 -2.612,24.65 -1.549,6.18 -9.123,7.09 -13.228,1.6 -2.73,-3.66 -3.297,-15.47 -1.524,-31.75 1.744,-16.02 1.747,-35.96 0.007,-42.75 -0.739,-2.89 -1.636,-5.07 -1.994,-4.85 -0.358,0.22 -0.746,-1.8 -0.862,-4.5 -0.116,-2.69 -0.669,-6.6 -1.229,-8.68 -3.508,-13.03 -4.989,-27.41 -4.777,-46.38 0.206,-18.37 0.103,-19.56 -2.033,-23.55 -1.238,-2.32 -2.25,-4.89 -2.25,-5.72 0,-1.47 -7.082,-18.34 -22.34,-53.2 -4.123,-9.43 -9.963,-23.6 -12.977,-31.5 -3.014,-7.91 -10.516,-26.3 -16.671,-40.87 -13.971,-33.087 -16.61,-39.927 -28.551,-74.003 -9.582,-27.344 -12.397,-34.575 -18.298,-47 -3.446,-7.257 -13.132,-33.779 -15.156,-41.5 -0.804,-3.067 -1.394,-12.155 -1.525,-23.5 -0.193,-16.568 -0.492,-19.493 -2.866,-28 -5.566,-19.943 -11.755,-46.038 -14.577,-61.462 -2.43,-13.276 -6.039,-40.868 -6.039,-46.167 0,-0.754 -0.396,-1.371 -0.881,-1.371 -0.484,0 -1.637,5.062 -2.56,11.25 -0.924,6.187 -3.183,19.35 -5.02,29.25 -9.516,51.277 -10.362,79.918 -3.383,114.5 9.261,45.883 10.654,56.607 11.885,91.5 0.524,14.85 1.393,28.8 1.932,31 0.539,2.2 0.99,5.896 1.003,8.215 0.017,3.071 0.529,4.485 1.887,5.211 1.024,0.549 2.344,2.252 2.933,3.785 1.128,2.937 4.169,17.684 4.7,22.792 0.172,1.65 0.986,5.13 1.81,7.75 0.824,2.61 1.262,4.75 0.974,4.75 -0.289,0 -0.032,0.59 0.571,1.32 0.603,0.72 1.067,2.64 1.032,4.25 -0.036,1.61 0.461,5.18 1.105,7.93 4.657,19.9 6.041,27.51 7.003,38.5 1.251,14.29 2.621,25.79 4.525,38 0.73,4.67 2.108,15.68 3.063,24.46 1.524,14.02 1.589,18.17 0.531,34 -1.769,26.47 -6.781,79.16 -9.66,101.54 -1.379,10.72 -3.38,32.1 -4.447,47.5 -2.274,32.83 -10.264,109.84 -12.509,120.56 -0.857,4.09 -2.396,10.14 -3.422,13.44 -5.721,18.41 -8.132,55.6 -6.158,95 1.116,22.25 2.017,27.32 9.422,53 4.529,15.7 11.199,49.48 13.13,66.5 2.695,23.75 1.937,62.87 -1.975,102 -1.517,15.16 -3.159,46.27 -4.012,76 -0.276,9.62 -0.957,23.8 -1.512,31.5 -3.399,47.11 -3.829,67.8 -1.543,74.28 0.783,2.22 1.197,4.26 0.92,4.54 -0.277,0.28 0.268,1.68 1.212,3.12 3.548,5.42 5.502,15.54 6.089,31.56 l 0.568,15.5 4.608,6 c 4.839,6.3 13.161,21.83 17.148,32 1.293,3.3 2.955,6.71 3.691,7.58 0.737,0.86 1.34,1.99 1.34,2.5 0,0.51 2.061,3.4 4.581,6.42 6.244,7.49 18.238,25.33 20.568,30.6 1.048,2.37 2.955,5.57 4.237,7.1 6.108,7.32 8.597,16.12 8.57,30.3 -0.018,9.38 -0.309,11.08 -2.738,16 -1.557,3.15 -3.786,6.01 -5.218,6.71 -2.737,1.32 -3.699,4.18 -3.882,11.54 -0.144,5.8 -2.935,9.26 -6.705,8.31 -2.27,-0.57 -2.413,-0.35 -2.413,3.7 0,6.05 -2.146,8.74 -6.99,8.74 -3.474,0 -3.91,0.28 -4.194,2.71 -0.739,6.36 -14.282,10.02 -19.367,5.24 l -2.18,-2.05 -0.587,2.94 c -1.155,5.77 -16.196,9.98 -23.682,6.62 z"
       inkscape:connector-curvature="0"
       style="fill:#000000" />
  </g>
</svg>
